<svg width="328" height="320" viewBox="0 0 328 320" fill="none" xmlns="http://www.w3.org/2000/svg">
<path d="M113.387 33.878C114.457 34.2067 115.527 34.5354 116.629 34.8741C134.838 41.184 152.771 55.0503 162.387 71.878C162.387 72.868 162.387 73.858 162.387 74.878C161.053 74.4836 159.72 74.0873 158.387 73.6905C157.467 73.4172 156.546 73.1439 155.598 72.8624C153.344 72.1715 151.1 71.45 148.863 70.7061C124.386 62.5913 95.9598 56.7269 71.6057 68.0538C66.4508 70.9753 62.4639 74.6144 58.3869 78.878C57.6057 79.663 56.8246 80.4481 56.0197 81.2569C46.6945 91.0374 41.3041 102.025 37.3869 114.878C37.1394 115.672 36.8919 116.466 36.6369 117.284C29.8936 143.883 39.8555 171.755 52.9733 194.557C56.9266 201.048 61.5789 207.006 66.3869 212.878C67.2171 213.904 68.0472 214.93 68.9025 215.987C73.0326 220.848 76.207 224.095 82.3869 225.878C83.5316 226.218 83.5316 226.218 84.6994 226.566C93.2025 227.554 99.6292 226.459 107.574 223.378C119.251 219.186 129.038 218.078 141.012 222.194C149.514 224.642 157.346 222.313 165.516 219.655C168.387 218.878 168.387 218.878 170.387 219.878C171.862 222.827 171.302 224.138 170.262 227.316C167.703 232.747 163.616 236.096 158.387 238.878C155.664 239.57 155.664 239.57 152.754 240.011C151.174 240.26 151.174 240.26 149.563 240.515C148.473 240.676 147.384 240.837 146.262 241.003C144.092 241.337 141.923 241.673 139.754 242.011C138.317 242.226 138.317 242.226 136.851 242.445C134.263 242.837 134.263 242.837 131.387 243.878C131.425 246.25 131.425 246.25 132.387 248.878C140.462 255.338 150.048 254.662 159.951 254.152C165.524 253.525 169.877 251.056 174.387 247.878C175.057 247.422 175.728 246.965 176.418 246.495C186.211 238.979 191.454 226.78 195.887 215.628C197.808 210.897 199.837 207.53 203.387 203.878C205.199 203.941 205.199 203.941 207.387 204.878C208.649 207.245 209.516 209.359 210.387 211.878C210.741 212.831 211.096 213.783 211.461 214.765C215.759 226.783 214.299 235.493 208.914 247.034C200.549 262.38 187.334 271.701 170.969 277.14C144.397 284.737 118.819 280.993 94.6369 268.503C72.4219 256.095 52.7012 236.87 37.6223 216.524C36.3925 214.885 35.1283 213.281 33.8479 211.683C10.6485 182.597 -3.1443 147.213 0.613963 109.606C3.07572 90.4547 11.5378 73.1623 24.3869 58.878C25.3247 57.8165 25.3247 57.8165 26.2814 56.7335C48.2393 33.2964 82.7776 24.4037 113.387 33.878Z" fill="#389CC1"/>
<path d="M282.387 42.878C283.375 43.4117 284.364 43.9453 285.383 44.4952C295.406 50.343 304.244 59.0356 310.387 68.878C310.057 69.538 309.727 70.198 309.387 70.878C308.634 70.2605 307.881 69.6431 307.105 69.0069C291.315 56.317 271.511 43.6197 250.387 45.878C241.688 47.782 234.55 51.6882 227.387 56.878C226.678 57.3781 225.969 57.8783 225.238 58.3936C210.787 69.7033 204.657 89.4114 202.387 106.878C201.305 116.591 201.327 126.229 201.427 135.983C201.682 164.849 200.951 193.62 190.387 220.878C189.727 220.878 189.067 220.878 188.387 220.878C188.179 219.885 187.972 218.893 187.758 217.87C184.359 202.509 178.429 189.408 166.387 178.878C164.468 177.952 164.468 177.952 162.387 177.878C160.643 179.011 160.643 179.011 159.129 180.823C158.513 181.482 157.896 182.141 157.261 182.819C156.271 183.9 156.271 183.9 155.262 185.003C139.832 201.121 120.642 212.723 100.387 221.878C99.7267 221.878 99.0667 221.878 98.3867 221.878C99.8773 217.488 102.269 214.057 105.012 210.378C119.543 190.395 131.172 168.41 135.387 143.878C135.518 143.12 135.65 142.362 135.785 141.581C138.681 122.012 132.779 101.416 122.387 84.878C120.57 82.5915 118.709 80.4568 116.672 78.3663C115.387 76.878 115.387 76.878 115.387 74.878C114.747 74.6099 114.108 74.3417 113.449 74.0655C111.387 72.878 111.387 72.878 110.387 69.878C120.186 64.9784 139.178 69.7606 148.93 72.8819C152.854 74.4729 156.484 76.5385 160.137 78.671C162.255 80.0356 162.255 80.0356 164.387 79.878C165.693 78.1827 165.693 78.1827 166.969 75.96C167.482 75.1238 167.995 74.2876 168.523 73.4261C169.353 72.072 169.353 72.072 170.199 70.6905C182.583 51.1495 198.685 37.5446 221.516 31.7725C243.333 27.1338 263.382 32.3272 282.387 42.878Z" fill="#7F3F99"/>
<path d="M301.961 68.6163C312.027 76.0616 319.127 86.1519 323.387 97.878C323.705 98.7417 324.024 99.6053 324.352 100.495C331.891 125.024 324.026 153.682 312.551 175.714C300.736 197.674 285.274 217.125 268.539 235.507C267.143 237.045 265.76 238.594 264.391 240.155C259.555 245.649 254.488 250.882 249.324 256.065C248.663 256.731 248.003 257.396 247.322 258.082C243.425 261.967 239.417 265.664 235.251 269.259C232.634 271.531 230.11 273.891 227.574 276.253C223.007 280.468 218.324 284.481 213.48 288.378C211.13 290.277 208.8 292.193 206.48 294.128C197.499 301.61 188.382 308.849 178.927 315.727C177.639 316.689 176.406 317.723 175.188 318.773C173.387 319.878 173.387 319.878 171.473 319.909C168.364 318.373 166.32 315.898 164.012 313.378C158.703 307.795 153.132 303.82 146.516 299.913C143.276 297.806 141.003 295.69 138.387 292.878C142.444 291.937 146.355 291.685 150.512 291.503C156.301 291.204 161.523 290.268 167.02 288.401C169.862 287.773 171.619 288.008 174.387 288.878C176.047 290.105 176.047 290.105 177.449 291.503C180.02 294.151 180.02 294.151 182.379 293.677C185.764 292.33 188.266 289.778 190.949 287.378C192.214 286.267 193.479 285.158 194.746 284.05C195.368 283.504 195.99 282.958 196.631 282.396C198.934 280.405 201.312 278.517 203.699 276.628C215.281 267.184 225.848 256.507 236.448 245.992C237.842 244.61 239.239 243.233 240.636 241.856C245.907 236.592 250.762 231.151 255.417 225.336C257.002 223.358 258.613 221.426 260.285 219.523C284.39 191.958 303.79 158.389 301.387 120.878C299.737 102.656 290.983 84.5257 276.953 72.6671C267.602 66.1485 258.6 63.6984 247.449 63.753C246.271 63.7472 246.271 63.7472 245.068 63.7413C240.729 63.7485 236.659 64.0139 232.387 64.878C232.387 64.218 232.387 63.558 232.387 62.878C255.186 50.4029 280.964 54.4375 301.961 68.6163Z" fill="#E34A98"/>
<path d="M176.762 3.5655C183.064 9.11754 187.457 14.5406 188.703 23.0342C189.096 30.2373 187.132 36.8095 182.293 42.2178C175.079 48.8663 169.696 50.4169 159.902 50.253C153.109 49.5284 148.579 46.4382 144.012 41.503C139.463 35.6144 137.737 30.1244 137.98 22.7178C139.076 15.0562 143.151 9.03507 149.164 4.29206C157.989 -1.32213 167.488 -1.0712 176.762 3.5655Z" fill="#F6BD18"/>
<path d="M124.387 84.878C126.824 86.0655 126.824 86.0655 129.387 87.878C129.774 89.5331 130.101 91.2025 130.387 92.878C130.957 94.35 131.563 95.8083 132.199 97.253C141.749 121.25 140.838 146.931 131.121 170.812C130.219 172.984 130.219 172.984 130.387 175.878C129.933 176.29 129.479 176.703 129.012 177.128C127.083 178.94 127.083 178.94 126.387 182.378C125.387 185.878 125.387 185.878 123.824 187.378C121.522 189.781 121.776 192.654 121.387 195.878C120.72 197.545 120.053 199.211 119.387 200.878C120.22 203.045 120.22 203.045 122.387 203.878C122.387 204.208 122.387 204.538 122.387 204.878C123.047 204.878 123.707 204.878 124.387 204.878C124.387 204.218 124.387 203.558 124.387 202.878C125.247 202.968 126.106 203.058 126.992 203.151C131.387 202.797 133.265 201.214 136.699 198.503C137.236 198.09 137.773 197.678 138.326 197.253C141.308 194.956 141.308 194.956 143.387 191.878C144.067 191.507 144.748 191.135 145.449 190.753C150.253 187.687 154.006 183.441 157.871 179.28C159.589 177.462 161.2 175.983 163.387 174.753C166.724 174.962 168.286 177.527 170.387 179.878C171.488 180.944 172.592 182.006 173.699 183.065C176.527 185.912 179.182 188.867 181.762 191.94C182.429 192.736 183.097 193.531 183.785 194.351C185.622 197.25 185.984 199.498 186.387 202.878C186.737 203.724 187.088 204.569 187.449 205.44C188.468 208.091 188.548 210.064 188.387 212.878C185.903 210.394 185.354 208.255 184.199 204.94C180.342 194.742 174.52 184.293 165.387 177.878C162.089 178.259 160.548 179.388 158.348 181.8C157.491 182.71 157.491 182.71 156.617 183.639C156.005 184.296 155.392 184.952 154.762 185.628C139.486 201.422 120.324 212.867 100.387 221.878C99.7267 221.878 99.0667 221.878 98.3867 221.878C99.8773 217.488 102.269 214.057 105.012 210.378C119.543 190.395 131.172 168.41 135.387 143.878C135.518 143.12 135.65 142.362 135.785 141.581C138.393 123.959 133.78 105.419 125.34 89.9366C124.387 87.878 124.387 87.878 124.387 84.878Z" fill="#744185"/>
<path d="M299.387 66.878C300.752 68.1784 302.095 69.5039 303.387 70.878C302.067 70.878 300.747 70.878 299.387 70.878C298.892 69.888 298.892 69.888 298.387 68.878C296.487 67.7687 294.541 66.7377 292.574 65.753C291.516 65.2142 290.458 64.6753 289.367 64.1202C286.31 62.6215 286.31 62.6215 282.387 62.878C282.882 63.868 282.882 63.868 283.387 64.878C281.737 65.538 280.087 66.198 278.387 66.878C278.387 67.868 278.387 68.858 278.387 69.878C280.045 71.2222 281.712 72.5542 283.387 73.878C284.417 75.5262 285.418 77.193 286.387 78.878C287.129 79.5586 287.872 80.2392 288.637 80.9405C289.214 81.5799 289.792 82.2192 290.387 82.878C289.996 84.9991 289.996 84.9991 289.387 86.878C288.974 86.3095 288.562 85.741 288.137 85.1553C280.352 74.7463 271.832 67.8124 259.051 64.2217C255.179 63.7222 251.349 63.7339 247.449 63.753C246.271 63.7472 246.271 63.7472 245.068 63.7413C240.729 63.7485 236.659 64.0139 232.387 64.878C232.387 64.218 232.387 63.558 232.387 62.878C253.308 51.4303 279.712 53.214 299.387 66.878Z" fill="#E24B99"/>
<path d="M282.387 42.878C283.375 43.4117 284.364 43.9454 285.383 44.4952C295.406 50.343 304.244 59.0356 310.387 68.878C309.892 69.868 309.892 69.868 309.387 70.878C308.634 70.2605 307.881 69.6431 307.105 69.0069C290.06 55.3087 272.378 46.44 250.387 44.878C252.387 42.878 252.387 42.878 255.188 42.7608C267.974 43.6426 278.091 46.5738 288.926 53.4874C291.351 55.124 291.351 55.124 294.387 54.878C294.387 55.868 294.387 56.858 294.387 57.878C296.367 58.538 298.347 59.198 300.387 59.878C293.143 51.987 284.224 45.2433 274.387 40.878C273.397 40.878 272.407 40.878 271.387 40.878C271.387 40.218 271.387 39.558 271.387 38.878C269.706 38.4623 269.706 38.4623 267.992 38.0382C266.52 37.6723 265.047 37.3065 263.574 36.9405C262.836 36.7581 262.098 36.5757 261.338 36.3878C258.316 35.6357 255.342 34.8632 252.387 33.878C236.702 32.4941 220.867 32.8913 207.387 41.878C204.699 42.003 204.699 42.003 202.387 41.878C202.387 40.888 202.387 39.898 202.387 38.878C204.696 37.9106 207.008 36.9541 209.324 36.003C209.964 35.7336 210.604 35.4642 211.264 35.1866C235.286 25.3866 260.499 30.7269 282.387 42.878Z" fill="#6E417C"/>
<path d="M151.387 2.87799C152.047 3.20799 152.707 3.53799 153.387 3.87799C149.427 7.34299 149.427 7.34299 145.387 10.878C145.717 11.208 146.047 11.538 146.387 11.878C148.657 14.5738 150.265 16.5111 151.387 19.878C150.324 22.503 150.324 22.503 148.387 24.878C145.199 25.6905 145.199 25.6905 142.387 25.878C142.882 26.3317 143.377 26.7855 143.887 27.253C145.387 28.878 145.387 28.878 145.387 30.878C146.047 30.878 146.707 30.878 147.387 30.878C147.717 29.228 148.047 27.578 148.387 25.878C149.377 25.878 150.367 25.878 151.387 25.878C151.223 26.44 151.06 27.0021 150.891 27.5811C150.358 30.0086 150.288 32.1469 150.324 34.628C150.338 35.8268 150.338 35.8268 150.352 37.0499C150.363 37.6531 150.375 38.2564 150.387 38.878C148.407 39.373 148.407 39.373 146.387 39.878C146.387 40.538 146.387 41.198 146.387 41.878C147.15 41.9811 147.913 42.0842 148.699 42.1905C151.63 42.9403 152.402 43.7127 154.387 45.878C157.454 46.9003 159.674 47.0439 162.887 47.0655C163.846 47.0797 164.805 47.0939 165.793 47.1085C168.624 47.0655 168.624 47.0655 171.387 44.878C174.852 43.7642 177.739 42.878 181.387 42.878C180.12 43.8621 178.848 44.8401 177.574 45.8155C176.867 46.3608 176.159 46.906 175.43 47.4678C169.927 51.2663 162.768 50.4827 156.387 49.878C148.458 47.3302 143.559 41.6427 139.512 34.628C137.411 27.625 137.353 21.3614 140.387 14.628C143.146 9.65114 146.87 6.26284 151.387 2.87799Z" fill="#F7BC1D"/>
<path d="M213.387 269.878C216.387 269.878 216.387 269.878 218.012 271.065C220.323 274.112 220.387 277.143 220.387 280.878C218.961 282.23 218.961 282.23 217.074 283.503C216.459 283.928 215.844 284.354 215.211 284.792C213.387 285.878 213.387 285.878 210.387 286.878C209.954 287.641 209.52 288.404 209.074 289.19C206.998 292.497 204.746 293.948 201.387 295.878C200.727 295.878 200.067 295.878 199.387 295.878C199.057 296.538 198.727 297.198 198.387 297.878C198.387 297.218 198.387 296.558 198.387 295.878C197.459 295.661 197.459 295.661 196.512 295.44C194.387 294.878 194.387 294.878 192.387 293.878C192.717 292.228 193.047 290.578 193.387 288.878C194.335 288.672 195.284 288.465 196.262 288.253C197.809 287.572 197.809 287.572 199.387 286.878C200.612 283.87 200.612 283.87 201.387 280.878C202.377 280.548 203.367 280.218 204.387 279.878C204.717 278.228 205.047 276.578 205.387 274.878C206.377 274.878 207.367 274.878 208.387 274.878C209.212 274.053 210.037 273.228 210.887 272.378C211.712 271.553 212.537 270.728 213.387 269.878Z" fill="#E54A9A"/>
<path d="M214.387 66.878C214.717 67.868 215.047 68.858 215.387 69.878C214.217 71.7007 213.044 73.5212 211.855 75.3311C201.364 93.5237 201.218 115.633 201.426 135.989C201.545 148.942 201.456 161.829 200.512 174.753C200.433 175.88 200.355 177.008 200.274 178.169C199.801 183.886 199.801 183.886 199.387 185.878C198.397 186.373 198.397 186.373 197.387 186.878C197.488 185.236 197.59 183.593 197.692 181.951C197.781 180.511 197.87 179.071 197.959 177.631C198.182 174.04 198.413 170.451 198.676 166.862C199.205 159.517 199.525 152.243 199.387 144.878C197.902 145.373 197.902 145.373 196.387 145.878C196.387 144.888 196.387 143.898 196.387 142.878C196.717 142.878 197.047 142.878 197.387 142.878C197.717 134.958 198.047 127.038 198.387 118.878C197.397 118.548 196.407 118.218 195.387 117.878C195.387 116.888 195.387 115.898 195.387 114.878C196.377 114.878 197.367 114.878 198.387 114.878C198.436 113.879 198.485 112.88 198.535 111.851C198.61 110.56 198.685 109.27 198.762 107.94C198.866 106.009 198.866 106.009 198.973 104.038C199.178 102.474 199.178 102.474 199.387 100.878C200.377 100.383 200.377 100.383 201.387 99.878C201.387 96.578 201.387 93.278 201.387 89.878C202.377 89.878 203.367 89.878 204.387 89.878C204.48 88.2383 204.48 88.2383 204.574 86.5655C205.515 79.0255 208.774 71.9996 214.387 66.878Z" fill="#6D407E"/>
<path d="M204.387 275.878C204.882 276.868 204.882 276.868 205.387 277.878C201.592 281.846 197.55 285.224 193.199 288.565C188.634 292.036 188.634 292.036 184.387 295.878C181.574 296.315 181.574 296.315 178.387 295.878C175.699 293.44 175.699 293.44 173.387 290.878C169.643 289.63 168.091 290.698 164.555 292.108C158.115 294.394 151.122 294.002 144.387 293.878C147.176 296.894 150.434 299.285 153.699 301.753C160.212 306.689 166.29 311.432 171.387 317.878C173.367 316.558 175.347 315.238 177.387 313.878C178.377 314.373 178.377 314.373 179.387 314.878C174.019 319.879 174.019 319.879 171.52 319.874C168.356 318.397 166.332 315.911 164.012 313.378C158.703 307.795 153.132 303.82 146.516 299.913C143.276 297.806 141.003 295.69 138.387 292.878C142.444 291.937 146.355 291.685 150.512 291.503C156.301 291.204 161.523 290.268 167.02 288.401C169.862 287.773 171.619 288.008 174.387 288.878C176.047 290.105 176.047 290.105 177.449 291.503C180.018 294.147 180.018 294.147 182.368 293.686C184.531 292.82 185.887 291.87 187.629 290.331C188.221 289.815 188.812 289.3 189.422 288.769C190.333 287.957 190.333 287.957 191.262 287.128C192.467 286.07 193.673 285.013 194.879 283.956C195.461 283.442 196.044 282.929 196.644 282.399C199.187 280.179 201.783 278.028 204.387 275.878Z" fill="#BA5588"/>
<path d="M203.387 203.878C205.199 203.94 205.199 203.94 207.387 204.878C208.649 207.245 209.516 209.359 210.387 211.878C210.741 212.831 211.096 213.783 211.461 214.765C215.393 225.76 214.431 232.988 210.387 243.878C209.187 246.363 207.896 248.561 206.387 250.878C206.057 249.888 205.727 248.898 205.387 247.878C206.005 246.97 206.624 246.063 207.262 245.128C211.121 238.794 211.177 230.088 209.84 222.964C209.11 220.559 208.268 218.23 207.387 215.878C206.665 213.222 206.031 210.554 205.387 207.878C203.442 208.124 203.442 208.124 201.387 208.878C198.834 213.186 197.116 217.542 195.449 222.253C194.091 226.057 192.643 229.772 190.949 233.44C190.579 234.246 190.209 235.052 189.828 235.882C188.006 238.406 186.315 238.974 183.387 239.878C183.799 239.304 184.212 238.731 184.637 238.14C189.293 231.29 192.492 224.322 195.457 216.605C197.463 211.531 199.662 207.88 203.387 203.878Z" fill="#428BA6"/>
<path d="M282.387 61.878C290.387 62.6472 290.387 62.6472 293.387 65.878C294.387 68.3155 294.387 68.3155 294.387 70.878C292.449 73.1905 292.449 73.1905 290.387 74.878C291.377 75.538 292.367 76.198 293.387 76.878C293.057 78.198 292.727 79.518 292.387 80.878C288.666 80.878 287.376 80.065 284.387 77.878C283.016 75.9031 281.68 73.9041 280.387 71.878C279.397 71.218 278.407 70.558 277.387 69.878C277.699 68.003 277.699 68.003 278.387 65.878C279.377 65.218 280.367 64.558 281.387 63.878C281.717 63.218 282.047 62.558 282.387 61.878Z" fill="#E854A0"/>
<path d="M114.012 59.878C115.375 60.0211 115.375 60.0211 116.766 60.1671C118.973 60.3994 121.18 60.6365 123.387 60.878C123.387 61.538 123.387 62.198 123.387 62.878C123.969 62.9154 124.552 62.9528 125.152 62.9913C130.105 63.3884 134.71 64.1454 139.512 65.4405C147.516 67.5866 147.516 67.5866 155.387 65.878C155.717 65.218 156.047 64.558 156.387 63.878C157.395 65.1419 158.393 66.4144 159.387 67.6905C159.944 68.3982 160.5 69.1059 161.074 69.835C162.387 71.878 162.387 71.878 162.387 74.878C161.053 74.4836 159.72 74.0873 158.387 73.6905C157.466 73.4172 156.546 73.1439 155.598 72.8624C153.344 72.1715 151.1 71.45 148.863 70.7061C128.621 63.9954 108.666 61.5292 87.3867 61.878C87.7167 61.218 88.0467 60.558 88.3867 59.878C96.3285 57.3161 105.887 58.9873 114.012 59.878Z" fill="#498DAC"/>
<path d="M251.387 55.878C268.719 55.0714 284.711 56.6861 299.387 66.878C300.752 68.1784 302.095 69.5039 303.387 70.878C302.067 70.878 300.747 70.878 299.387 70.878C298.892 69.888 298.892 69.888 298.387 68.878C296.487 67.7687 294.541 66.7377 292.574 65.753C291.516 65.2142 290.458 64.6753 289.367 64.1202C286.31 62.6215 286.31 62.6215 282.387 62.878C282.717 63.538 283.047 64.198 283.387 64.878C281.737 65.538 280.087 66.198 278.387 66.878C278.387 67.868 278.387 68.858 278.387 69.878C280.045 71.2222 281.712 72.5542 283.387 73.878C284.417 75.5262 285.418 77.193 286.387 78.878C287.129 79.5586 287.872 80.2393 288.637 80.9405C289.214 81.5799 289.792 82.2193 290.387 82.878C289.996 84.9991 289.996 84.9991 289.387 86.878C288.974 86.3095 288.562 85.7411 288.137 85.1553C282.659 77.8315 276.921 71.5052 268.387 67.878C269.047 67.218 269.707 66.558 270.387 65.878C272.037 66.538 273.687 67.198 275.387 67.878C275.387 67.218 275.387 66.558 275.387 65.878C276.047 65.548 276.707 65.218 277.387 64.878C277.387 63.228 277.387 61.578 277.387 59.878C268.732 58.4191 260.146 57.4228 251.387 56.878C251.387 56.548 251.387 56.218 251.387 55.878Z" fill="#CD4D8E"/>
<path d="M140.758 222.21C146.169 223.585 151.846 223.094 157.387 222.878C155.044 225.052 153.811 225.851 150.574 226.058C143.883 225.418 137.667 224.262 131.18 222.523C126.122 221.355 121.484 220.829 116.762 223.19C115.978 223.747 115.194 224.304 114.387 224.878C109.799 227.002 105.273 228.587 100.387 229.878C99.7432 230.068 99.0996 230.258 98.4365 230.454C96.2063 230.915 94.5302 230.828 92.2773 230.538C91.5232 230.445 90.7691 230.351 89.9922 230.255C88.8262 230.099 88.8262 230.099 87.6367 229.94C86.8439 229.841 86.0512 229.741 85.2344 229.638C83.2843 229.391 81.3354 229.135 79.3867 228.878C79.0567 227.888 78.7267 226.898 78.3867 225.878C77.3967 225.878 76.4067 225.878 75.3867 225.878C75.3867 225.218 75.3867 224.558 75.3867 223.878C76.137 224.095 76.8872 224.311 77.6602 224.534C78.6837 224.813 79.7072 225.091 80.7617 225.378C81.7595 225.656 82.7572 225.935 83.7852 226.222C92.6462 227.836 99.2631 226.601 107.574 223.378C119.115 219.235 128.947 217.953 140.758 222.21Z" fill="#418EAD"/>
<path d="M247.387 238.878C252.064 240.355 252.064 240.355 253.699 243.003C253.926 243.622 254.153 244.24 254.387 244.878C253.727 245.538 253.067 246.198 252.387 246.878C252.263 247.476 252.139 248.074 252.012 248.69C251.113 251.837 249.693 253.572 247.387 255.878C244.137 256.69 244.137 256.69 241.387 256.878C241.057 255.228 240.727 253.578 240.387 251.878C239.397 251.878 238.407 251.878 237.387 251.878C237.717 250.228 238.047 248.578 238.387 246.878C239.377 246.878 240.367 246.878 241.387 246.878C243.074 245.114 243.074 245.114 244.574 242.878C245.104 242.135 245.634 241.393 246.18 240.628C246.578 240.05 246.976 239.473 247.387 238.878ZM240.387 249.878C240.717 250.538 241.047 251.198 241.387 251.878C241.717 251.218 242.047 250.558 242.387 249.878C241.727 249.878 241.067 249.878 240.387 249.878Z" fill="#E8499B"/>
<path d="M162.387 174.878C168.427 175.309 172.636 182.161 176.449 186.315C177.286 187.222 178.122 188.128 178.984 189.062C182.667 193.378 185.571 197.453 187.137 202.94C187.5 204.164 187.5 204.164 187.871 205.413C188.406 207.971 188.48 210.273 188.387 212.878C185.903 210.394 185.354 208.255 184.199 204.94C180.342 194.742 174.52 184.293 165.387 177.878C162.089 178.259 160.548 179.388 158.348 181.8C157.776 182.407 157.204 183.015 156.615 183.641C155.698 184.624 155.698 184.624 154.762 185.628C149.18 191.42 143.37 196.452 136.824 201.128C136.075 201.664 135.326 202.2 134.554 202.752C130.635 205.49 126.743 207.869 122.387 209.878C122.717 208.888 123.047 207.898 123.387 206.878C125.449 206.19 125.449 206.19 127.387 205.878C127.387 205.218 127.387 204.558 127.387 203.878C128.377 203.342 129.367 202.805 130.387 202.253C137.948 198.152 137.948 198.152 143.387 191.878C144.067 191.507 144.748 191.135 145.449 190.753C149.688 188.047 152.909 184.483 156.387 180.878C157.363 179.896 158.342 178.917 159.324 177.94C160.005 177.26 160.685 176.579 161.387 175.878C161.717 175.548 162.047 175.218 162.387 174.878Z" fill="#673A73"/>
<path d="M89.3867 246.878C90.0467 246.878 90.7067 246.878 91.3867 246.878C91.7167 248.528 92.0467 250.178 92.3867 251.878C91.3967 251.878 90.4067 251.878 89.3867 251.878C89.8449 255.347 90.278 258.552 91.3867 261.878C92.0467 262.208 92.7067 262.538 93.3867 262.878C94.0117 264.94 94.0117 264.94 94.3867 266.878C95.253 266.96 96.1192 267.043 97.0117 267.128C100.932 267.999 103.062 269.64 106.387 271.878C109.675 273.334 113.016 274.626 116.387 275.878C112.232 277.263 109.735 275.605 105.949 273.878C104.879 273.397 104.879 273.397 103.787 272.907C93.8224 268.348 84.8224 262.886 76.3867 255.878C79.0079 255.878 80.8961 256.191 83.3867 256.878C83.0567 255.558 82.7267 254.238 82.3867 252.878C83.1705 252.816 83.9542 252.754 84.7617 252.69C85.628 252.422 86.4942 252.154 87.3867 251.878C88.7614 249.402 88.7614 249.402 89.3867 246.878Z" fill="#4398B8"/>
<path d="M12.3867 74.878C13.0467 74.878 13.7067 74.878 14.3867 74.878C14.5742 77.253 14.5742 77.253 14.3867 79.878C13.3967 80.538 12.4067 81.198 11.3867 81.878C10.2395 84.5665 9.24842 87.1772 8.32417 89.9405C8.06829 90.6669 7.81241 91.3933 7.54878 92.1417C4.34167 101.466 3.0511 109.877 3.13667 119.753C3.14054 120.838 3.14441 121.922 3.14839 123.04C3.25089 132.739 4.10418 142.271 5.38667 151.878C4.72667 151.878 4.06667 151.878 3.38667 151.878C-1.86845 124.508 -0.884867 99.9465 12.3867 74.878Z" fill="#508AA1"/>
<path d="M86.3867 61.878C84.0566 63.1119 81.7511 64.1222 79.2852 65.0694C70.7748 68.3811 64.7803 72.1918 58.3867 78.878C57.6055 79.663 56.8244 80.4481 56.0195 81.2569C44.4501 93.3912 37.9343 108.376 35.3867 124.878C34.7267 124.878 34.0667 124.878 33.3867 124.878C35.8683 104.34 44.5981 89.874 58.3867 74.878C59.057 74.1471 59.7273 73.4162 60.418 72.6632C64.1988 69.2349 68.8627 67.1722 73.3867 64.878C74.0673 64.5312 74.748 64.1845 75.4492 63.8272C79.2134 62.0544 82.2471 61.5751 86.3867 61.878Z" fill="#4A889C"/>
<path d="M87.6367 30.5655C89.1441 30.5707 89.1441 30.5707 90.6819 30.576C101.52 30.7337 111.36 32.6667 121.387 36.878C121.387 37.538 121.387 38.198 121.387 38.878C120.781 38.6846 120.175 38.4913 119.551 38.2921C118.713 38.0317 117.875 37.7713 117.012 37.503C116.2 37.2478 115.387 36.9925 114.551 36.7296C105.615 34.3246 97.2715 33.5395 88.0117 33.5655C86.8696 33.5494 85.7275 33.5333 84.5508 33.5167C75.408 33.5115 66.8292 34.7655 58.4492 38.5655C55.4463 39.8525 53.6035 40.1704 50.3867 39.878C52.9826 37.2821 55.4298 36.6105 58.8867 35.378C60.052 34.9552 61.2173 34.5324 62.418 34.0968C70.7699 31.3887 78.8831 30.5162 87.6367 30.5655Z" fill="#4E8CA1"/>
<path d="M172.387 275.878C154.521 282.774 135.747 281.931 117.387 277.878C117.717 277.218 118.047 276.558 118.387 275.878C119.305 275.983 119.305 275.983 120.241 276.09C127.836 276.877 135.393 277.064 143.022 277.063C145.082 277.066 147.141 277.084 149.201 277.103C156.375 277.131 165.843 273.843 172.387 275.878Z" fill="#488CA8"/>
<path d="M306.387 180.878C307.047 180.878 307.707 180.878 308.387 180.878C306.783 185.395 304.48 189.274 301.949 193.315C301.51 194.016 301.072 194.717 300.619 195.439C296.39 202.07 291.665 208.217 286.683 214.294C285.469 215.777 284.273 217.274 283.078 218.773C276.308 227.208 269.091 235.282 261.387 242.878C261.387 241.888 261.387 240.898 261.387 239.878C262.047 239.878 262.707 239.878 263.387 239.878C263.646 239.302 263.905 238.726 264.172 238.132C265.483 235.7 266.983 233.871 268.824 231.815C269.421 231.144 270.018 230.472 270.633 229.78C272.387 227.878 272.387 227.878 274.047 226.319C275.642 224.803 275.642 224.803 276.387 221.878C278.045 220.534 279.712 219.202 281.387 217.878C283.775 215.158 285.24 213.319 286.387 209.878C287.047 209.878 287.707 209.878 288.387 209.878C288.675 209.3 288.964 208.723 289.262 208.128C289.633 207.385 290.004 206.643 290.387 205.878C290.696 205.197 291.005 204.517 291.324 203.815C292.387 201.878 292.387 201.878 293.738 200.585C299.043 195.092 302.69 187.532 306.387 180.878Z" fill="#B94D85"/>
<path d="M33.3865 125.878C33.7165 125.878 34.0465 125.878 34.3865 125.878C34.4239 127.052 34.4613 128.227 34.4998 129.437C35.1597 146.807 37.8109 161.773 44.3865 177.878C44.7165 178.868 45.0465 179.858 45.3865 180.878C42.3865 179.878 42.3865 179.878 40.9217 176.956C40.4166 175.686 39.9266 174.409 39.449 173.128C39.1911 172.445 38.9331 171.762 38.6673 171.058C38.1443 169.657 37.6274 168.254 37.1165 166.849C36.4874 165.15 35.8034 163.473 35.1092 161.8C31.293 151.641 29.8947 136.354 33.3865 125.878Z" fill="#438DA1"/>
<path d="M176.762 3.5655C183.064 9.11754 187.457 14.5406 188.703 23.0342C189.035 29.1146 187.376 34.5894 184.387 39.878C183.397 40.538 182.407 41.198 181.387 41.878C181.717 40.228 182.047 38.578 182.387 36.878C183.047 36.878 183.707 36.878 184.387 36.878C185.282 33.0085 185.581 29.3475 185.637 25.378C185.675 23.7228 185.675 23.7228 185.715 22.0342C185.351 18.5327 184.281 16.7891 182.387 13.878C182.387 12.888 182.387 11.898 182.387 10.878C181.397 10.548 180.407 10.218 179.387 9.878C178.273 8.67144 178.273 8.67144 177.137 7.4405C170.5 1.25672 161.934 2.6646 153.387 2.878C160.505 -1.86764 169.418 -0.106583 176.762 3.5655Z" fill="#D8B353"/>
<path d="M111.387 201.878C112.047 201.878 112.707 201.878 113.387 201.878C112.93 206.785 111.641 209.217 108.387 212.878C108.057 213.538 107.727 214.198 107.387 214.878C108.074 214.601 108.761 214.324 109.469 214.038C110.37 213.676 111.271 213.314 112.199 212.94C113.093 212.581 113.986 212.221 114.906 211.851C116.714 211.142 118.545 210.492 120.387 209.878C120.387 210.538 120.387 211.198 120.387 211.878C117.098 213.551 113.805 215.215 110.512 216.878C109.575 217.355 108.637 217.832 107.672 218.323C106.328 219 106.328 219 104.957 219.69C104.13 220.109 103.302 220.528 102.45 220.96C100.387 221.878 100.387 221.878 98.3867 221.878C99.9929 216.954 102.84 213.179 105.887 209.065C106.386 208.373 106.884 207.68 107.398 206.966C107.879 206.312 108.36 205.657 108.855 204.983C109.293 204.387 109.731 203.79 110.182 203.176C110.579 202.747 110.977 202.319 111.387 201.878Z" fill="#744384"/>
<path d="M201.387 40.878C200.727 42.858 200.067 44.838 199.387 46.878C198.644 46.7749 197.902 46.6717 197.137 46.5655C194.196 46.5843 194.196 46.5843 192.449 49.128C191.769 50.0355 191.088 50.943 190.387 51.878C189.459 52.4761 188.53 53.0742 187.574 53.6905C179.267 59.3915 174.613 68.0364 169.84 76.6788C169.36 77.4045 168.881 78.1303 168.387 78.878C167.727 78.878 167.067 78.878 166.387 78.878C166.057 79.868 165.727 80.858 165.387 81.878C165.057 81.218 164.727 80.558 164.387 79.878C169.605 68.7867 186.982 40.878 201.387 40.878Z" fill="#764781"/>
<path d="M182.387 240.878C183.047 241.208 183.707 241.538 184.387 241.878C182.429 244.003 180.47 246.128 178.512 248.253C177.956 248.856 177.401 249.46 176.828 250.081C176.293 250.661 175.758 251.241 175.207 251.839C174.715 252.373 174.223 252.907 173.715 253.458C172.629 254.619 171.512 255.753 170.387 256.878C168.05 256.569 165.717 256.233 163.387 255.878C161.718 256.201 160.051 256.535 158.387 256.878C152.048 257.172 145.603 257.259 139.387 255.878C139.057 255.218 138.727 254.558 138.387 253.878C139.383 253.925 139.383 253.925 140.399 253.973C156.317 254.627 166.627 254.593 179.137 244.003C180.232 242.974 181.321 241.938 182.387 240.878Z" fill="#418498"/>
<path d="M239.387 31.878C239.387 32.208 239.387 32.538 239.387 32.878C238.371 32.9644 237.355 33.0507 236.309 33.1397C226.373 34.1086 218.129 36.2869 209.23 41.0264C206.869 42.1169 204.955 42.0207 202.387 41.878C202.387 40.888 202.387 39.898 202.387 38.878C215.464 33.399 224.973 30.2294 239.387 31.878Z" fill="#754387"/>
<path d="M145.387 71.878C145.387 72.538 145.387 73.198 145.387 73.878C137.848 72.9682 137.848 72.9682 134.668 72.3467C130.588 71.7639 126.626 71.7702 122.512 71.8155C121.336 71.8223 121.336 71.8223 120.137 71.8292C118.22 71.8409 116.303 71.8588 114.387 71.878C118.878 77.4084 118.878 77.4084 124.387 81.878C124.057 82.538 123.727 83.198 123.387 83.878C122.048 82.76 120.715 81.6334 119.387 80.503C118.644 79.8765 117.902 79.25 117.137 78.6046C116.559 78.0348 115.982 77.465 115.387 76.878C115.387 76.218 115.387 75.558 115.387 74.878C114.747 74.6099 114.108 74.3417 113.449 74.0655C111.387 72.878 111.387 72.878 110.387 69.878C119.26 65.4416 136.4 69.451 145.387 71.878Z" fill="#6F4681"/>
<path d="M170.387 219.878C171.262 221.503 171.262 221.503 171.387 223.878C169.392 229.972 166.519 233.515 161.352 237.413C157.139 239.495 152.951 239.955 148.324 240.566C147.426 240.695 146.529 240.825 145.604 240.958C141.798 241.493 138.242 241.878 134.387 241.878C134.387 241.218 134.387 240.558 134.387 239.878C136.27 239.748 136.27 239.748 138.191 239.616C148.897 238.763 157.186 237.566 165.949 230.941C167.788 228.303 168.099 226.048 168.387 222.878C165.087 223.208 161.787 223.538 158.387 223.878C158.387 223.218 158.387 222.558 158.387 221.878C159.82 221.346 161.259 220.828 162.699 220.316C163.5 220.025 164.3 219.735 165.125 219.437C167.387 218.878 167.387 218.878 170.387 219.878Z" fill="#447E98"/>
<path d="M251.387 56.878C249.248 59.0165 248.254 59.3045 245.387 59.878C246.544 59.976 247.702 60.0739 248.895 60.1749C250.434 60.325 251.973 60.4761 253.512 60.628C254.272 60.6899 255.033 60.7517 255.816 60.8155C261.097 61.3618 264.204 62.5909 268.387 65.878C266.387 66.878 266.387 66.878 264.637 66.3194C263.894 66.0294 263.152 65.7393 262.387 65.4405C257.244 63.794 252.483 63.6014 247.137 63.628C246.368 63.6313 245.6 63.6346 244.809 63.638C240.574 63.7074 236.556 64.0549 232.387 64.878C232.387 64.218 232.387 63.558 232.387 62.878C244.623 56.4802 244.623 56.4802 251.387 56.878Z" fill="#C04D89"/>
<path d="M145.387 41.878C149.528 42.3382 151.635 42.7331 154.387 45.878C157.454 46.9003 159.673 47.0439 162.887 47.0655C163.846 47.0797 164.805 47.0939 165.793 47.1085C168.624 47.0655 168.624 47.0655 171.387 44.878C174.852 43.7642 177.739 42.878 181.387 42.878C180.12 43.8621 178.848 44.8401 177.574 45.8155C176.513 46.6334 176.513 46.6334 175.43 47.4678C169.939 51.2581 162.755 50.5065 156.387 49.878C151.526 48.1533 148.257 46.1831 145.387 41.878Z" fill="#E1BA45"/>
<path d="M151.387 2.87799C152.047 3.20799 152.707 3.53799 153.387 3.87799C152.555 4.54895 152.555 4.54895 151.707 5.23346C146.298 9.65838 146.298 9.65838 143.387 15.878C142.397 17.363 142.397 17.363 141.387 18.878C141.145 21.6232 141.145 21.6232 141.262 24.5655C141.28 25.5594 141.298 26.5532 141.316 27.5772C141.339 28.3365 141.363 29.0957 141.387 29.878C142.377 29.878 143.367 29.878 144.387 29.878C144.387 30.538 144.387 31.198 144.387 31.878C143.727 31.878 143.067 31.878 142.387 31.878C142.387 33.528 142.387 35.178 142.387 36.878C143.047 36.878 143.707 36.878 144.387 36.878C144.717 38.528 145.047 40.178 145.387 41.878C140.958 38.0606 138.833 34.039 138.027 28.3311C137.664 21.1796 139.219 15.719 143.387 9.87799C145.887 7.29911 148.514 5.03081 151.387 2.87799Z" fill="#DAB95F"/>
<path d="M203.387 203.878C205.199 203.94 205.199 203.94 207.387 204.878C209.199 208.253 209.199 208.253 210.387 211.878C210.057 212.868 209.727 213.858 209.387 214.878C208.397 212.238 207.407 209.598 206.387 206.878C202.468 207.428 202.468 207.428 201.043 209.558C198.376 214.622 196.307 219.69 194.414 225.089C193.366 227.935 192.222 230.688 190.949 233.44C190.579 234.246 190.209 235.052 189.828 235.882C188.006 238.406 186.315 238.974 183.387 239.878C183.799 239.304 184.212 238.731 184.637 238.14C189.293 231.29 192.492 224.322 195.457 216.605C197.463 211.531 199.662 207.88 203.387 203.878Z" fill="#427C96"/>
<path d="M140.758 222.21C146.169 223.585 151.846 223.094 157.387 222.878C155.044 225.052 153.811 225.851 150.574 226.058C144.945 225.52 139.607 224.781 134.137 223.315C126.135 221.181 120.235 221.256 112.473 224.144C109.819 225.078 107.172 225.521 104.387 225.878C113.214 217.05 129.999 218.332 140.758 222.21Z" fill="#49849E"/>
<path d="M9.38672 168.878C10.0467 168.878 10.7067 168.878 11.3867 168.878C11.7167 170.528 12.0467 172.178 12.3867 173.878C13.0467 173.878 13.7067 173.878 14.3867 173.878C14.6432 174.654 14.8998 175.43 15.1641 176.23C17.4827 182.772 20.1361 188.553 23.8867 194.378C24.254 194.952 24.6213 195.527 24.9998 196.119C27.4467 199.805 30.2256 202.801 33.3867 205.878C34.0467 206.868 34.7067 207.858 35.3867 208.878C35.0567 209.868 34.7267 210.858 34.3867 211.878C25.8184 201.921 9.38672 182.778 9.38672 168.878Z" fill="#49889F"/>
<path d="M251.387 55.878C268.719 55.0714 284.711 56.6861 299.387 66.878C300.752 68.1784 302.095 69.5039 303.387 70.878C302.067 70.878 300.747 70.878 299.387 70.878C298.892 69.888 298.892 69.888 298.387 68.878C283.435 60.0266 268.459 58.2144 251.387 56.878C251.387 56.548 251.387 56.218 251.387 55.878Z" fill="#BB5087"/>
<path d="M270.387 206.878C270.882 207.868 270.882 207.868 271.387 208.878C270.437 210.383 269.477 211.882 268.512 213.378C267.978 214.213 267.444 215.049 266.895 215.909C266.397 216.559 265.899 217.209 265.387 217.878C264.727 217.878 264.067 217.878 263.387 217.878C263.16 218.6 262.933 219.322 262.699 220.065C261.115 223.459 259.065 225.26 256.387 227.878C254.564 229.849 252.752 231.826 250.949 233.815C247.192 237.942 243.387 241.986 239.387 245.878C238.727 245.548 238.067 245.218 237.387 244.878C238.076 244.212 238.766 243.545 239.477 242.858C245.031 237.41 250.191 231.886 255.047 225.792C258.204 221.861 261.478 218.033 264.758 214.205C266.786 211.825 268.649 209.484 270.387 206.878Z" fill="#B94F84"/>
<path d="M163.199 1.8155C163.989 1.82452 164.78 1.83355 165.594 1.84284C166.481 1.86025 166.481 1.86025 167.387 1.878C167.387 2.208 167.387 2.538 167.387 2.878C166.232 2.98113 165.077 3.08425 163.887 3.1905C159.375 3.73835 155.581 5.15549 151.387 6.878C151.717 7.208 152.047 7.538 152.387 7.878C153.047 7.878 153.707 7.878 154.387 7.878C154.717 7.218 155.047 6.558 155.387 5.878C156.047 6.538 156.707 7.198 157.387 7.878C155.763 9.58684 154.094 11.2525 152.387 12.878C151.727 12.878 151.067 12.878 150.387 12.878C150.387 13.538 150.387 14.198 150.387 14.878C149.397 15.208 148.407 15.538 147.387 15.878C147.057 14.888 146.727 13.898 146.387 12.878C145.397 13.373 145.397 13.373 144.387 13.878C144.944 10.1685 146.335 8.61824 149.137 6.1905C149.812 5.58851 150.488 4.98652 151.184 4.36628C154.966 1.81126 158.741 1.74896 163.199 1.8155Z" fill="#F3BD24"/>
<path d="M122.387 37.878C133.467 41.1399 142.189 49.0245 150.387 56.878C150.958 57.4091 151.529 57.9402 152.117 58.4874C153.254 59.5702 154.331 60.7162 155.387 61.878C155.387 62.538 155.387 63.198 155.387 63.878C154.397 64.208 153.407 64.538 152.387 64.878C150.387 62.878 150.387 62.878 149.508 60.4952C145.357 50.8052 131.583 44.1033 122.387 39.878C122.387 39.218 122.387 38.558 122.387 37.878Z" fill="#48859B"/>
<path d="M48.3867 39.878C49.0467 40.208 49.7067 40.538 50.3867 40.878C47.355 43.54 44.7014 45.7085 41.1367 47.628C33.5451 51.7933 27.4555 58.5293 21.9258 65.0811C19.8676 67.4841 17.6571 69.6764 15.3867 71.878C16.8434 67.2235 19.5364 64.108 22.8242 60.628C23.3563 60.0595 23.8883 59.491 24.4365 58.9053C31.5143 51.4798 39.355 44.8044 48.3867 39.878Z" fill="#4F8DA1"/>
<path d="M236.387 245.878C236.717 246.868 237.047 247.858 237.387 248.878C236.937 249.256 236.487 249.633 236.023 250.023C231.114 254.223 226.537 258.659 222.069 263.321C220.878 264.543 219.636 265.715 218.387 266.878C217.727 266.878 217.067 266.878 216.387 266.878C216.387 267.538 216.387 268.198 216.387 268.878C214.707 270.569 214.707 270.569 212.512 272.44C211.792 273.061 211.073 273.681 210.332 274.319C208.387 275.878 208.387 275.878 206.387 276.878C209.065 270.911 214.116 266.933 219.012 262.753C225.137 257.487 230.718 251.625 236.387 245.878Z" fill="#B85589"/>
<path d="M246.387 44.878C246.387 45.538 246.387 46.198 246.387 46.878C245.296 47.2628 245.296 47.2628 244.184 47.6553C235.054 51.1314 226.352 55.9076 220.168 63.6592C219.58 64.3914 218.992 65.1236 218.387 65.878C217.727 65.878 217.067 65.878 216.387 65.878C217.387 63.878 218.387 61.878 219.387 59.878C220.047 59.878 220.707 59.878 221.387 59.878C221.387 59.218 221.387 58.558 221.387 57.878C222.693 56.8423 224.03 55.8467 225.387 54.878C225.804 54.4152 226.222 53.9524 226.652 53.4756C228.978 51.3329 231.491 50.1471 234.324 48.753C235.364 48.2348 236.405 47.7166 237.477 47.1827C240.531 45.8133 243.042 44.878 246.387 44.878Z" fill="#693D75"/>
<path d="M196.387 188.878C196.717 188.878 197.047 188.878 197.387 188.878C197.664 195.208 196.72 200.486 195.012 206.565C194.79 207.394 194.568 208.222 194.34 209.075C193.239 213.118 192.065 217.028 190.387 220.878C189.727 220.878 189.067 220.878 188.387 220.878C188.057 218.568 187.727 216.258 187.387 213.878C187.717 214.538 188.047 215.198 188.387 215.878C189.047 215.878 189.707 215.878 190.387 215.878C190.652 214.683 190.918 213.488 191.191 212.257C192.923 204.464 194.655 196.671 196.387 188.878Z" fill="#6B3D7A"/>
<path d="M40.3867 209.878C42.9492 212.128 42.9492 212.128 45.3867 214.878C45.1992 217.19 45.1992 217.19 44.3867 218.878C43.7267 218.878 43.0667 218.878 42.3867 218.878C42.0567 219.538 41.7267 220.198 41.3867 220.878C40.3778 219.782 39.3798 218.676 38.3867 217.565C37.5514 216.643 37.5514 216.643 36.6992 215.702C35.3867 213.878 35.3867 213.878 35.3867 210.878C36.3767 210.878 37.3667 210.878 38.3867 210.878C38.7167 211.208 39.0467 211.538 39.3867 211.878C39.7167 211.218 40.0467 210.558 40.3867 209.878Z" fill="#3E95B6"/>
<path d="M182.387 240.878C183.047 241.208 183.707 241.538 184.387 241.878C182.429 244.003 180.47 246.128 178.512 248.253C177.956 248.856 177.401 249.46 176.828 250.081C176.293 250.661 175.758 251.241 175.207 251.839C174.469 252.64 174.469 252.64 173.715 253.458C172.629 254.619 171.512 255.753 170.387 256.878C168.262 256.503 168.262 256.503 166.387 255.878C166.387 255.218 166.387 254.558 166.387 253.878C168.367 253.218 170.347 252.558 172.387 251.878C172.387 250.888 172.387 249.898 172.387 248.878C174.066 247.343 174.066 247.343 176.262 245.815C178.497 244.241 180.449 242.815 182.387 240.878Z" fill="#3D8DAD"/>
<path d="M176.387 187.878C183.556 193.056 186.611 199.39 188.387 207.878C188.433 209.544 188.446 211.212 188.387 212.878C185.872 210.364 185.266 208.1 184.074 204.753C182.032 199.264 179.602 194.747 176.387 189.878C176.387 189.218 176.387 188.558 176.387 187.878Z" fill="#683B77"/>
<path d="M323.387 139.878C324.987 143.909 323.73 146.98 322.512 151.003C321.959 152.863 321.959 152.863 321.395 154.761C320.387 157.878 320.387 157.878 319.387 159.878C318.727 159.548 318.067 159.218 317.387 158.878C318.047 156.898 318.707 154.918 319.387 152.878C318.727 152.878 318.067 152.878 317.387 152.878C317.387 151.228 317.387 149.578 317.387 147.878C318.707 147.548 320.027 147.218 321.387 146.878C322.047 144.568 322.707 142.258 323.387 139.878Z" fill="#C54A88"/>
<path d="M171.387 12.878C172.377 12.878 173.367 12.878 174.387 12.878C176.44 15.9575 176.775 17.3032 177.137 20.878C177.235 21.7442 177.333 22.6105 177.434 23.503C177.387 25.878 177.387 25.878 175.387 28.878C174.397 28.548 173.407 28.218 172.387 27.878C172.482 27.2631 172.578 26.6482 172.676 26.0147C172.787 25.2065 172.898 24.3982 173.012 23.5655C173.186 22.3647 173.186 22.3647 173.363 21.1397C173.602 18.5908 173.602 18.5908 171.387 15.878C171.387 14.888 171.387 13.898 171.387 12.878Z" fill="#F8BE07"/>
<path d="M90.3867 264.878C96.5021 266.473 101.146 268.275 106.387 271.878C109.675 273.333 113.016 274.626 116.387 275.878C112.144 277.292 109.496 275.462 105.637 273.69C104.946 273.386 104.255 273.081 103.543 272.767C98.9885 270.725 94.6843 268.415 90.3867 265.878C90.3867 265.548 90.3867 265.218 90.3867 264.878Z" fill="#4B8398"/>
<path d="M291.387 172.878C292.047 173.208 292.707 173.538 293.387 173.878C292.002 176.614 290.605 179.341 289.199 182.065C288.618 183.219 288.618 183.219 288.025 184.396C285.635 188.999 283.275 192.432 279.387 195.878C281.186 190.802 283.877 186.241 286.512 181.565C286.98 180.73 287.448 179.894 287.93 179.032C289.079 176.979 290.232 174.928 291.387 172.878Z" fill="#BC4F84"/>
<path d="M150.387 21.878C151.377 22.208 152.367 22.538 153.387 22.878C153.387 24.528 153.387 26.178 153.387 27.878C151.737 27.548 150.087 27.218 148.387 26.878C148.057 28.198 147.727 29.518 147.387 30.878C146.727 30.878 146.067 30.878 145.387 30.878C145.387 30.218 145.387 29.558 145.387 28.878C144.397 28.548 143.407 28.218 142.387 27.878C142.387 27.218 142.387 26.558 142.387 25.878C144.367 25.548 146.347 25.218 148.387 24.878C148.387 24.218 148.387 23.558 148.387 22.878C149.047 22.548 149.707 22.218 150.387 21.878Z" fill="#F6BE08"/>
<path d="M175.387 62.878C176.047 63.208 176.707 63.538 177.387 63.878C174.387 68.878 174.387 68.878 171.387 73.878C170.607 75.2798 170.607 75.2798 169.812 76.71C169.342 77.4255 168.871 78.1409 168.387 78.878C167.727 78.878 167.067 78.878 166.387 78.878C166.057 79.868 165.727 80.858 165.387 81.878C165.057 81.218 164.727 80.558 164.387 79.878C165.283 78.0904 165.283 78.0904 166.695 75.9639C167.195 75.2034 167.694 74.4428 168.209 73.6592C168.742 72.8652 169.275 72.0711 169.824 71.253C170.353 70.4512 170.883 69.6494 171.428 68.8233C172.74 66.8367 174.06 64.8553 175.387 62.878Z" fill="#6E407B"/>
<path d="M204.387 250.878C204.387 255.797 200.698 258.483 197.387 261.878C195.11 263.966 192.782 265.923 190.387 267.878C190.387 264.266 191.004 263.507 193.387 260.878C194.15 260.445 194.913 260.012 195.699 259.565C199.35 257.273 201.72 254.223 204.387 250.878Z" fill="#4389A1"/>
<path d="M293.387 57.878C295.862 58.373 295.862 58.373 298.387 58.878C298.717 59.868 299.047 60.858 299.387 61.878C300.294 62.1667 301.202 62.4555 302.137 62.753C305.946 64.0716 307.728 65.907 310.387 68.878C310.057 69.538 309.727 70.198 309.387 70.878C307.28 69.2765 305.177 67.6719 303.074 66.0655C302.479 65.6137 301.884 65.1619 301.271 64.6964C298.483 62.5619 295.769 60.4672 293.387 57.878Z" fill="#6A406D"/>
<path d="M139.387 20.878C139.717 20.878 140.047 20.878 140.387 20.878C140.717 23.848 141.047 26.818 141.387 29.878C142.377 29.878 143.367 29.878 144.387 29.878C144.387 30.538 144.387 31.198 144.387 31.878C143.727 31.878 143.067 31.878 142.387 31.878C142.387 33.528 142.387 35.178 142.387 36.878C143.047 36.878 143.707 36.878 144.387 36.878C144.717 38.528 145.047 40.178 145.387 41.878C141.566 38.3122 139.513 35.9662 139.191 30.6436C139.215 29.4835 139.238 28.3233 139.262 27.128C139.289 25.3723 139.289 25.3723 139.316 23.5811C139.34 22.6891 139.363 21.7971 139.387 20.878Z" fill="#E7BD49"/>
<path d="M259.387 242.878C260.047 243.208 260.707 243.538 261.387 243.878C256.437 248.828 251.487 253.778 246.387 258.878C246.057 257.888 245.727 256.898 245.387 255.878C247.053 254.211 248.72 252.545 250.387 250.878C251.222 249.981 251.222 249.981 252.074 249.065C253.387 247.878 253.387 247.878 255.387 247.878C255.387 247.218 255.387 246.558 255.387 245.878C257.387 244.253 257.387 244.253 259.387 242.878Z" fill="#BC4D84"/>
<path d="M104.387 211.878C105.047 212.208 105.707 212.538 106.387 212.878C105.397 214.198 104.407 215.518 103.387 216.878C105.367 216.548 107.347 216.218 109.387 215.878C106.839 218.85 103.933 220.293 100.387 221.878C99.7267 221.878 99.0667 221.878 98.3867 221.878C99.7564 217.883 101.644 215.078 104.387 211.878Z" fill="#643E71"/>
<path d="M240.387 58.878C241.047 59.208 241.707 59.538 242.387 59.878C242.057 60.208 241.727 60.538 241.387 60.878C245.017 61.208 248.647 61.538 252.387 61.878C252.387 62.208 252.387 62.538 252.387 62.878C250.975 62.9689 250.975 62.9689 249.535 63.0616C248.29 63.1454 247.045 63.2292 245.762 63.3155C244.532 63.3967 243.302 63.4779 242.035 63.5616C238.771 63.8446 235.607 64.2884 232.387 64.878C232.387 64.218 232.387 63.558 232.387 62.878C233.673 62.1809 234.966 61.4956 236.262 60.8155C236.981 60.4326 237.7 60.0498 238.441 59.6553C239.083 59.3988 239.725 59.1423 240.387 58.878Z" fill="#A1547C"/>
<path d="M155.387 63.878C158.034 66.4558 160.331 68.7945 162.387 71.878C162.387 72.868 162.387 73.858 162.387 74.878C161.067 74.218 159.747 73.558 158.387 72.878C159.047 72.878 159.707 72.878 160.387 72.878C158.165 70.6561 156.302 69.952 153.387 68.878C153.387 68.218 153.387 67.558 153.387 66.878C154.047 66.548 154.707 66.218 155.387 65.878C155.387 65.218 155.387 64.558 155.387 63.878Z" fill="#3A849D"/>
<path d="M126.387 41.878C132.523 43.294 136.654 46.9443 141.387 50.878C141.057 51.538 140.727 52.198 140.387 52.878C139.727 52.878 139.067 52.878 138.387 52.878C138.387 51.888 138.387 50.898 138.387 49.878C137.706 49.6099 137.025 49.3417 136.324 49.0655C132.99 47.7175 129.689 46.3026 126.387 44.878C126.387 43.888 126.387 42.898 126.387 41.878Z" fill="#4499B9"/>
<path d="M317.387 160.878C317.717 161.538 318.047 162.198 318.387 162.878C317.766 164.574 317.766 164.574 316.734 166.573C316.37 167.289 316.006 168.004 315.631 168.741C315.241 169.488 314.851 170.234 314.449 171.003C314.063 171.757 313.677 172.511 313.279 173.288C312.322 175.155 311.355 177.017 310.387 178.878C309.387 176.878 309.387 176.878 310.023 174.706C312.068 169.689 314.17 165.244 317.387 160.878Z" fill="#BC4D88"/>
<path d="M4.38672 152.878C5.04672 152.878 5.70672 152.878 6.38672 152.878C8.84161 158.001 9.89014 162.217 10.3867 167.878C9.72672 167.878 9.06672 167.878 8.38672 167.878C7.71452 165.942 7.04914 164.004 6.38672 162.065C6.01547 160.987 5.64422 159.908 5.26172 158.796C4.38672 155.878 4.38672 155.878 4.38672 152.878Z" fill="#488EA3"/>
<path d="M147.387 11.878C146.921 16.6272 146.217 19.9858 143.387 23.878C143.057 23.878 142.727 23.878 142.387 23.878C142.474 22.4394 142.582 21.002 142.699 19.5655C142.757 18.765 142.815 17.9645 142.875 17.1397C143.396 14.8364 144.591 11.878 147.387 11.878Z" fill="#F8BC09"/>
<path d="M186.387 22.878C186.717 22.878 187.047 22.878 187.387 22.878C188.036 30.7234 187.373 35.6628 182.387 41.878C182.057 40.888 181.727 39.898 181.387 38.878C181.717 38.218 182.047 37.558 182.387 36.878C183.047 36.878 183.707 36.878 184.387 36.878C185.432 32.2507 185.904 27.5895 186.387 22.878Z" fill="#DDB543"/>
<path d="M192.387 207.878C193.047 208.538 193.707 209.198 194.387 209.878C193.067 213.508 191.747 217.138 190.387 220.878C189.727 220.878 189.067 220.878 188.387 220.878C188.057 218.568 187.727 216.258 187.387 213.878C187.717 214.538 188.047 215.198 188.387 215.878C189.047 215.878 189.707 215.878 190.387 215.878C191.047 213.238 191.707 210.598 192.387 207.878Z" fill="#5E396B"/>
<path d="M111.387 207.878C112.047 207.878 112.707 207.878 113.387 207.878C114.512 211.628 114.512 211.628 113.387 213.878C110.324 214.503 110.324 214.503 107.387 214.878C108.461 211.963 109.165 210.1 111.387 207.878Z" fill="#823E9A"/>
<path d="M176.387 29.878C177.047 29.878 177.707 29.878 178.387 29.878C177.889 33.6129 177.512 35.6904 175.387 38.878C174.727 38.878 174.067 38.878 173.387 38.878C173.057 37.558 172.727 36.238 172.387 34.878C173.377 34.548 174.367 34.218 175.387 33.878C176.12 31.8629 176.12 31.8629 176.387 29.878Z" fill="#F7BE04"/>
<path d="M145.387 41.878C148.961 42.2029 150.944 42.5167 153.762 44.8155C155.387 46.878 155.387 46.878 155.387 48.878C150.952 47.4843 148.513 45.2722 145.387 41.878Z" fill="#E7C050"/>
<path d="M150.387 74.878C155.142 75.4543 158.357 77.4287 162.387 79.878C162.057 80.538 161.727 81.198 161.387 81.878C156.784 80.1077 153.674 78.691 150.387 74.878Z" fill="#663D7A"/>
<path d="M297.387 54.878C298.519 55.786 299.642 56.7048 300.762 57.628C301.388 58.1385 302.015 58.6489 302.66 59.1749C304.47 60.96 305.388 62.5575 306.387 64.878C304.077 63.888 301.767 62.898 299.387 61.878C299.387 60.888 299.387 59.898 299.387 58.878C298.437 56.7277 298.437 56.7277 297.387 54.878Z" fill="#734B7F"/>
<path d="M157.387 221.878C157.717 222.538 158.047 223.198 158.387 223.878C159.377 224.208 160.367 224.538 161.387 224.878C161.387 226.528 161.387 228.178 161.387 229.878C160.067 229.548 158.747 229.218 157.387 228.878C157.387 226.568 157.387 224.258 157.387 221.878Z" fill="#27A2BF"/>
<path d="M50.3867 39.878C51.0467 40.208 51.7067 40.538 52.3867 40.878C46.2439 47.4494 46.2439 47.4494 41.3867 48.878C41.3867 47.888 41.3867 46.898 41.3867 45.878C43.1445 44.9014 44.9023 43.9249 46.6602 42.9483C48.548 41.869 48.548 41.869 50.3867 39.878Z" fill="#4599B9"/>
<path d="M179.387 32.878C180.949 34.5655 180.949 34.5655 182.387 36.878C182.074 39.628 182.074 39.628 181.387 41.878C181.057 40.888 180.727 39.898 180.387 38.878C179.397 38.548 178.407 38.218 177.387 37.878C177.387 36.558 177.387 35.238 177.387 33.878C178.047 33.548 178.707 33.218 179.387 32.878Z" fill="#F8BB27"/>
<path d="M189.387 229.878C190.047 230.538 190.707 231.198 191.387 231.878C190.199 234.753 190.199 234.753 188.387 237.878C186.737 238.538 185.087 239.198 183.387 239.878C185.367 236.578 187.347 233.278 189.387 229.878Z" fill="#468AA6"/>
<path d="M203.387 205.878C205.277 206.062 205.277 206.062 207.387 206.878C208.434 209.163 208.434 209.163 209.137 211.94C209.379 212.86 209.621 213.779 209.871 214.726C210.041 215.436 210.211 216.146 210.387 216.878C209.397 216.548 208.407 216.218 207.387 215.878C206.656 214.03 206.656 214.03 206.199 211.815C206.041 211.082 205.882 210.349 205.719 209.593C205.609 209.027 205.5 208.461 205.387 207.878C204.727 207.878 204.067 207.878 203.387 207.878C203.387 207.218 203.387 206.558 203.387 205.878Z" fill="#4695B5"/>
<path d="M278.387 195.878C279.387 197.878 279.387 197.878 278.824 200.253C276.969 203.64 274.675 204.948 271.387 206.878C273.166 202.834 275.782 199.417 278.387 195.878Z" fill="#C14C85"/>
<path d="M3.38672 137.878C5.57933 142.097 7.75566 146.48 7.01172 151.315C6.80547 151.831 6.59922 152.347 6.38672 152.878C5.72672 152.548 5.06672 152.218 4.38672 151.878C3.97266 148.718 3.97266 148.718 3.76172 144.815C3.68695 143.525 3.61219 142.235 3.53516 140.905C3.48617 139.906 3.43719 138.907 3.38672 137.878Z" fill="#4399B9"/>
<path d="M317.387 86.878C319.387 89.424 321.212 91.8445 322.387 94.878C322.057 95.868 321.727 96.858 321.387 97.878C318.387 95.878 318.387 95.878 317.875 93.7139C317.817 92.9018 317.759 92.0897 317.699 91.253C317.633 90.4357 317.568 89.6185 317.5 88.7764C317.463 88.1499 317.425 87.5235 317.387 86.878Z" fill="#C54E8A"/>
<path d="M108.387 34.878C117.981 36.6206 117.981 36.6206 121.387 39.878C118.387 40.878 118.387 40.878 116.199 39.9405C115.601 39.5899 115.003 39.2392 114.387 38.878C114.387 38.218 114.387 37.558 114.387 36.878C112.737 36.878 111.087 36.878 109.387 36.878C109.057 36.218 108.727 35.558 108.387 34.878Z" fill="#469BBB"/>
<path d="M224.387 32.878C223.727 32.878 223.067 32.878 222.387 32.878C222.387 33.538 222.387 34.198 222.387 34.878C218.713 36.0537 215.217 35.9517 211.387 35.878C215.556 33.0987 219.489 31.2454 224.387 32.878Z" fill="#7B5188"/>
<path d="M36.3867 164.878C38.8497 167.341 39.1544 169.152 40.0117 172.503C40.2721 173.506 40.5325 174.509 40.8008 175.542C40.9941 176.313 41.1875 177.084 41.3867 177.878C40.3967 177.548 39.4067 177.218 38.3867 176.878C37.0441 172.568 36.3867 169.4 36.3867 164.878Z" fill="#439AB9"/>
<path d="M155.387 14.878C154.727 16.198 154.067 17.518 153.387 18.878C152.397 18.878 151.407 18.878 150.387 18.878C150.057 17.558 149.727 16.238 149.387 14.878C151.878 13.6325 152.798 14.1012 155.387 14.878Z" fill="#F7BE06"/>
<path d="M212.387 58.878C215.387 59.878 215.387 59.878 216.637 61.6905C217.503 64.2174 217.272 65.4002 216.387 67.878C213.864 65.9038 213.394 64.9105 212.699 61.6905C212.596 60.7624 212.493 59.8342 212.387 58.878Z" fill="#784090"/>
<path d="M180.387 13.878C181.872 14.868 181.872 14.868 183.387 15.878C183.574 19.003 183.574 19.003 183.387 21.878C180.387 19.878 180.387 19.878 179.637 17.3155C179.554 16.5111 179.472 15.7067 179.387 14.878C179.717 14.548 180.047 14.218 180.387 13.878Z" fill="#F7BD01"/>
<path d="M236.387 264.878C237.047 265.208 237.707 265.538 238.387 265.878C235.747 268.518 233.107 271.158 230.387 273.878C230.387 269.942 231.815 268.752 234.387 265.878C235.047 265.548 235.707 265.218 236.387 264.878Z" fill="#B74D81"/>
<path d="M151.387 29.878C151.717 29.878 152.047 29.878 152.387 29.878C152.057 32.518 151.727 35.158 151.387 37.878C150.727 37.878 150.067 37.878 149.387 37.878C149.262 35.003 149.262 35.003 149.387 31.878C150.047 31.218 150.707 30.558 151.387 29.878Z" fill="#F9BF02"/>
<path d="M104.387 226.878C102.077 228.198 99.7667 229.518 97.3867 230.878C97.0567 230.218 96.7267 229.558 96.3867 228.878C97.3867 226.878 97.3867 226.878 99.2617 226.19C101.387 225.878 101.387 225.878 104.387 226.878Z" fill="#478AAD"/>
<path d="M310.387 172.878C311.387 174.878 311.387 174.878 310.449 178.003C310.099 178.952 309.748 179.9 309.387 180.878C308.067 180.218 306.747 179.558 305.387 178.878C306.047 178.218 306.707 177.558 307.387 176.878C308.399 175.554 309.401 174.222 310.387 172.878Z" fill="#DA4791"/>
<path d="M11.3867 169.878C13.3242 170.19 13.3242 170.19 15.3867 170.878C16.3867 173.878 16.3867 173.878 15.4492 176.065C14.9233 176.963 14.9233 176.963 14.3867 177.878C14.3867 176.558 14.3867 175.238 14.3867 173.878C13.7267 173.878 13.0667 173.878 12.3867 173.878C12.0567 172.558 11.7267 171.238 11.3867 169.878Z" fill="#4098BC"/>
<path d="M150.387 59.878C152.324 60.1905 152.324 60.1905 154.387 60.878C154.717 61.868 155.047 62.858 155.387 63.878C154.397 64.208 153.407 64.538 152.387 64.878C151.727 64.218 151.067 63.558 150.387 62.878C150.387 61.888 150.387 60.898 150.387 59.878Z" fill="#3C8BA8"/>
<path d="M208.387 38.878C208.057 39.868 207.727 40.858 207.387 41.878C205.737 41.878 204.087 41.878 202.387 41.878C202.387 40.888 202.387 39.898 202.387 38.878C204.878 37.6325 205.798 38.1012 208.387 38.878Z" fill="#7D4A8E"/>
<path d="M146.387 32.878C146.717 32.878 147.047 32.878 147.387 32.878C147.057 35.848 146.727 38.818 146.387 41.878C145.727 41.218 145.067 40.558 144.387 39.878C144.955 34.3098 144.955 34.3098 146.387 32.878Z" fill="#F5BC2B"/>
</svg>
